# Blender v2.82 (sub 7) OBJ File: 'bricks.blend'
# www.blender.org
# mtllib bricks.mtl
o Brick2_Plane
v -3.790084 0.000000 -0.359309
v -2.373693 0.000000 -0.359309
v -2.373693 0.000000 -1.630105
v -3.790084 0.000000 -1.630105
v -5.643941 0.000000 -0.359309
v -4.223394 0.000000 -0.359309
v -4.223394 0.000000 -1.630105
v -5.643941 0.000000 -1.630105
v -5.643941 1.396041 -1.630105
v -5.643941 1.396041 -0.359309
v -3.790084 1.396041 -0.359309
v -2.373693 1.396041 -0.359309
v -2.373693 1.396041 -1.630105
v -4.223394 1.396041 -1.630105
v -4.223394 1.396041 -0.359309
v -3.790084 1.396041 -1.630105
v -6.008543 0.079937 0.005293
v -5.928606 0.000000 -0.074644
v -2.089028 0.000000 -0.074644
v -2.009090 0.079937 0.005293
v -5.928606 0.000000 -1.914769
v -6.008543 0.079937 -1.994707
v -2.089028 0.000000 -1.914769
v -2.009090 0.079937 -1.994707
v -4.008817 0.079937 0.005293
v -4.008817 0.000000 -0.074644
v -4.008817 0.000000 -1.914769
v -4.008817 0.079937 -1.994707
v -4.008817 1.396041 -0.074644
v -4.008817 1.316104 0.005293
v -4.008817 1.316104 -1.994707
v -4.008817 1.396041 -1.914769
v -2.009090 1.316104 0.005293
v -2.089028 1.396041 -0.074644
v -2.009090 1.316104 -1.994707
v -2.089028 1.396041 -1.914769
v -5.928606 1.396041 -0.074644
v -6.008543 1.316104 0.005293
v -6.008543 1.316104 -1.994707
v -5.928606 1.396041 -1.914769
vt 0.980013 0.039969
vt 0.908837 0.182301
vt 0.908837 0.817699
vt 0.980013 0.960031
vt 1.000000 0.000000
vt 1.000000 1.000000
vt 1.000000 1.000000
vt 1.000000 0.000000
vt 0.500000 1.000000
vt 0.500000 1.000000
vt 0.500000 0.039969
vt 0.500000 0.960031
vt 0.408837 0.817699
vt 0.408837 0.182301
vt 0.019987 0.960031
vt 0.091163 0.817699
vt 0.091163 0.182301
vt 0.019987 0.039969
vt 0.500000 0.960031
vt 0.591163 0.817699
vt 0.591163 0.182301
vt 0.500000 0.039969
vt 0.508347 0.960031
vt 0.000000 1.000000
vt 0.000000 0.000000
vt 0.000000 0.000000
vt 0.000000 1.000000
vt 0.591163 0.182301
vt 0.591163 0.817699
vt 0.019987 0.960031
vt 0.019987 0.039969
vt 0.091163 0.182301
vt 0.091163 0.817699
vt 0.491419 0.960031
vt 0.491419 0.039969
vt 0.980013 0.960031
vt 0.508347 0.960031
vt 0.908837 0.817699
vt 0.508347 0.039969
vt 0.980013 0.039969
vt 0.908837 0.182301
vt 0.408837 0.182301
vt 0.491419 0.960031
vt 0.408837 0.817699
vt 0.500000 0.000000
vt 0.500000 0.000000
vt 0.508347 0.039969
vt 0.491419 0.039969
vn 0.0000 -1.0000 0.0000
vn 1.0000 0.0000 0.0000
vn 0.0000 0.0000 -1.0000
vn 0.0000 1.0000 0.0000
vn -1.0000 0.0000 0.0000
vn 0.0000 0.0000 1.0000
vn 0.0000 -0.7071 0.7071
vn 0.7071 -0.7071 0.0000
vn 0.0000 -0.7071 -0.7071
vn -0.7071 -0.7071 0.0000
vn 0.0000 0.7071 0.7071
vn 0.7071 0.7071 0.0000
vn 0.0000 0.7071 -0.7071
vn -0.7071 0.7071 0.0000
usemtl None
s off
f 19/1/1 2/2/1 3/3/1 23/4/1
f 20/5/2 24/6/2 35/7/2 33/8/2
f 24/6/3 28/9/3 31/10/3 35/7/3
f 29/11/4 32/12/4 14/13/4 15/14/4
f 21/15/1 8/16/1 5/17/1 18/18/1
f 27/19/1 4/20/1 1/21/1 26/22/1
f 23/4/1 3/3/1 4/20/1 27/23/1
f 22/24/5 17/25/5 38/26/5 39/27/5
f 32/12/4 29/11/4 11/28/4 16/29/4
f 40/30/4 37/31/4 10/32/4 9/33/4
f 32/34/4 40/30/4 9/33/4 14/13/4
f 37/31/4 29/35/4 15/14/4 10/32/4
f 36/36/4 32/37/4 16/29/4 13/38/4
f 29/39/4 34/40/4 12/41/4 11/28/4
f 34/40/4 36/36/4 13/38/4 12/41/4
f 6/42/3 5/17/3 10/32/3 15/14/3
f 4/20/6 3/3/6 13/38/6 16/29/6
f 27/43/1 7/44/1 8/16/1 21/15/1
f 26/22/1 6/42/1 7/44/1 27/19/1
f 1/21/2 4/20/2 16/29/2 11/28/2
f 25/45/6 20/5/6 33/8/6 30/46/6
f 5/17/2 8/16/2 9/33/2 10/32/2
f 7/44/5 6/42/5 15/14/5 14/13/5
f 26/47/1 1/21/1 2/2/1 19/1/1
f 2/2/3 1/21/3 11/28/3 12/41/3
f 18/18/1 5/17/1 6/42/1 26/48/1
f 3/3/5 2/2/5 12/41/5 13/38/5
f 8/16/6 7/44/6 14/13/6 9/33/6
f 28/9/3 22/24/3 39/27/3 31/10/3
f 26/47/7 19/1/7 20/5/7 25/45/7
f 19/1/8 23/4/8 24/6/8 20/5/8
f 23/4/9 27/23/9 28/9/9 24/6/9
f 18/18/7 26/48/7 25/45/7 17/25/7
f 27/43/9 21/15/9 22/24/9 28/9/9
f 21/15/10 18/18/10 17/25/10 22/24/10
f 30/46/11 33/8/11 34/40/11 29/39/11
f 33/8/12 35/7/12 36/36/12 34/40/12
f 35/7/13 31/10/13 32/37/13 36/36/13
f 38/26/11 30/46/11 29/35/11 37/31/11
f 31/10/13 39/27/13 40/30/13 32/34/13
f 39/27/14 38/26/14 37/31/14 40/30/14
f 17/25/6 25/45/6 30/46/6 38/26/6
o Brick3_Plane.001
v 0.214317 0.000000 2.638646
v 1.631363 0.000000 2.638646
v 1.631363 0.000000 1.367850
v 0.214317 0.000000 1.367850
v -3.625171 0.000000 2.638646
v -2.210004 0.000000 2.638646
v -2.210004 0.000000 1.367850
v -3.625171 0.000000 1.367850
v -1.776693 0.000000 2.638646
v -0.218994 0.000000 2.638646
v -0.218994 0.000000 1.367850
v -1.776693 0.000000 1.367850
v -3.625171 1.396041 1.367850
v -3.625171 1.396041 2.638646
v 0.214317 1.396041 2.638646
v 1.631363 1.396041 2.638646
v 1.631363 1.396041 1.367850
v -2.210004 1.396041 1.367850
v -2.210004 1.396041 2.638646
v -0.218994 1.396041 1.367850
v -1.776693 1.396041 1.367850
v -1.776693 1.396041 2.638646
v -0.218994 1.396041 2.638646
v 0.214317 1.396041 1.367850
v -3.989773 0.079937 3.003248
v -3.909836 0.000000 2.923311
v 1.916028 0.000000 2.923311
v 1.995965 0.079937 3.003248
v -3.909836 0.000000 1.083185
v -3.989773 0.079937 1.003248
v 1.916028 0.000000 1.083185
v 1.995965 0.079937 1.003248
v -1.995426 0.000000 2.923311
v -1.995426 0.079937 3.003248
v -1.995426 0.079937 1.003248
v -1.995426 0.000000 1.083185
v -0.004416 0.079937 3.003248
v -0.004416 0.000000 2.923311
v -0.004416 0.000000 1.083185
v -0.004416 0.079937 1.003248
v -1.995426 1.316104 3.003248
v -1.995426 1.396041 2.923311
v -1.995426 1.396041 1.083185
v -1.995426 1.316104 1.003248
v -0.004416 1.396041 2.923311
v -0.004416 1.316104 3.003248
v -0.004416 1.316104 1.003248
v -0.004416 1.396041 1.083185
v 1.995965 1.316104 3.003248
v 1.916028 1.396041 2.923311
v 1.995965 1.316104 1.003248
v 1.916028 1.396041 1.083185
v -3.909836 1.396041 2.923311
v -3.989773 1.316104 3.003248
v -3.989773 1.316104 1.003248
v -3.909836 1.396041 1.083185
vt 0.990010 0.039969
vt 0.954433 0.182301
vt 0.954433 0.817699
vt 0.990010 0.960031
vt 1.000000 0.000000
vt 1.000000 1.000000
vt 1.000000 1.000000
vt 1.000000 0.000000
vt 0.750000 1.000000
vt 0.750000 1.000000
vt 0.500000 0.960031
vt 0.500000 0.039969
vt 0.545781 0.182301
vt 0.545781 0.817699
vt 0.020041 0.960031
vt 0.091409 0.817699
vt 0.091409 0.182301
vt 0.020041 0.039969
vt 0.500000 0.000000
vt 0.750000 0.000000
vt 0.750000 0.000000
vt 0.500000 0.000000
vt 0.795567 0.817699
vt 0.754172 0.960031
vt 0.000000 1.000000
vt 0.000000 0.000000
vt 0.000000 0.000000
vt 0.000000 1.000000
vt 0.500000 1.000000
vt 0.500000 1.000000
vt 0.750000 0.960031
vt 0.795567 0.182301
vt 0.750000 0.039969
vt 0.704219 0.182301
vt 0.704219 0.817699
vt 0.500000 0.039969
vt 0.408591 0.182301
vt 0.408591 0.817699
vt 0.500000 0.960031
vt 0.750000 0.960031
vt 0.750000 0.039969
vt 0.795567 0.182301
vt 0.795567 0.817699
vt 0.020041 0.960031
vt 0.020041 0.039969
vt 0.091409 0.182301
vt 0.091409 0.817699
vt 0.990010 0.039969
vt 0.990010 0.960031
vt 0.954433 0.817699
vt 0.954433 0.182301
vt 0.754172 0.960031
vt 0.504346 0.039969
vt 0.745543 0.039969
vt 0.704219 0.182301
vt 0.491395 0.039969
vt 0.408591 0.182301
vt 0.745543 0.960031
vt 0.504346 0.960031
vt 0.704219 0.817699
vt 0.491395 0.960031
vt 0.408591 0.817699
vt 0.754172 0.039969
vt 0.491395 0.039969
vt 0.545781 0.817699
vt 0.504346 0.039969
vt 0.545781 0.182301
vt 0.745543 0.039969
vt 0.491395 0.960031
vt 0.745543 0.960031
vt 0.504346 0.960031
vt 0.754172 0.039969
vn 0.0000 -1.0000 0.0000
vn 1.0000 0.0000 0.0000
vn 0.0000 0.0000 -1.0000
vn 0.0000 1.0000 0.0000
vn 0.0000 0.0000 1.0000
vn -1.0000 0.0000 0.0000
vn 0.0000 -0.7071 0.7071
vn 0.7071 -0.7071 0.0000
vn 0.0000 -0.7071 -0.7071
vn -0.7071 -0.7071 0.0000
vn 0.0000 0.7071 0.7071
vn 0.7071 0.7071 0.0000
vn 0.0000 0.7071 -0.7071
vn -0.7071 0.7071 0.0000
usemtl None
s off
f 67/49/15 42/50/15 43/51/15 71/52/15
f 68/53/16 72/54/16 91/55/16 89/56/16
f 72/54/17 80/57/17 87/58/17 91/55/17
f 83/59/18 82/60/18 62/61/18 61/62/18
f 69/63/15 48/64/15 45/65/15 66/66/15
f 74/67/19 77/68/19 86/69/19 81/70/19
f 71/52/15 43/51/15 44/71/15 79/72/15
f 70/73/20 65/74/20 94/75/20 95/76/20
f 80/57/17 75/77/17 84/78/17 87/58/17
f 79/79/15 44/71/15 41/80/15 78/81/15
f 78/81/15 50/82/15 51/83/15 79/79/15
f 73/84/15 46/85/15 47/86/15 76/87/15
f 88/88/18 85/89/18 55/90/18 64/91/18
f 96/92/18 93/93/18 54/94/18 53/95/18
f 90/96/18 92/97/18 57/98/18 56/99/18
f 92/97/18 88/100/18 64/91/18 57/98/18
f 82/101/18 85/102/18 63/103/18 62/61/18
f 93/93/18 82/104/18 59/105/18 54/94/18
f 88/106/18 83/107/18 61/62/18 60/108/18
f 83/109/18 96/92/18 53/95/18 58/110/18
f 85/111/18 90/96/18 56/99/18 55/90/18
f 85/89/18 88/88/18 60/108/18 63/103/18
f 82/60/18 83/59/18 58/110/18 59/105/18
f 46/85/17 45/65/17 54/94/17 59/105/17
f 66/66/15 45/65/15 46/85/15 73/112/15
f 51/83/20 50/82/20 63/103/20 60/108/20
f 52/113/19 51/83/19 60/108/19 61/62/19
f 73/114/15 49/115/15 50/82/15 78/116/15
f 75/77/17 70/73/17 95/76/17 84/78/17
f 50/82/17 49/115/17 62/61/17 63/103/17
f 45/65/16 48/64/16 53/95/16 54/94/16
f 44/71/19 43/51/19 57/98/19 64/91/19
f 76/117/15 47/86/15 48/64/15 69/63/15
f 42/50/17 41/80/17 55/90/17 56/99/17
f 76/87/15 52/113/15 49/115/15 73/84/15
f 43/51/20 42/50/20 56/99/20 57/98/20
f 79/118/15 51/83/15 52/113/15 76/119/15
f 41/80/16 44/71/16 64/91/16 55/90/16
f 77/68/19 68/53/19 89/56/19 86/69/19
f 48/64/19 47/86/19 58/110/19 53/95/19
f 47/86/20 46/85/20 59/105/20 58/110/20
f 78/120/15 41/80/15 42/50/15 67/49/15
f 49/115/16 52/113/16 61/62/16 62/61/16
f 78/120/21 67/49/21 68/53/21 77/68/21
f 67/49/22 71/52/22 72/54/22 68/53/22
f 71/52/23 79/72/23 80/57/23 72/54/23
f 66/66/21 73/112/21 74/67/21 65/74/21
f 76/117/23 69/63/23 70/73/23 75/77/23
f 69/63/24 66/66/24 65/74/24 70/73/24
f 73/114/21 78/116/21 77/68/21 74/67/21
f 79/118/23 76/119/23 75/77/23 80/57/23
f 86/69/25 89/56/25 90/96/25 85/111/25
f 89/56/26 91/55/26 92/97/26 90/96/26
f 91/55/27 87/58/27 88/100/27 92/97/27
f 94/75/25 81/70/25 82/104/25 93/93/25
f 84/78/27 95/76/27 96/92/27 83/109/27
f 95/76/28 94/75/28 93/93/28 96/92/28
f 81/70/25 86/69/25 85/102/25 82/101/25
f 87/58/27 84/78/27 83/107/27 88/106/27
f 65/74/19 74/67/19 81/70/19 94/75/19
o Brick4_Plane.002
v 1.009730 0.000000 -2.010991
v 1.222859 0.000000 -2.214423
v 2.654083 0.000000 -2.214423
v 2.654083 0.000000 -3.653989
v 1.222859 0.000000 -3.653989
v -0.634624 0.000000 -2.214423
v 0.800755 0.000000 -2.214423
v 0.800755 0.000000 -3.653989
v -0.634624 0.000000 -3.653989
v -0.634624 0.000000 -0.367993
v 0.800755 0.000000 -0.367993
v 0.800755 0.000000 -1.756587
v -0.634624 0.000000 -1.756587
v 1.222859 0.000000 -0.367993
v 2.654083 0.000000 -0.367993
v 2.654083 0.000000 -1.756587
v 1.222859 0.000000 -1.756587
v -0.634624 1.396041 -1.756587
v -0.634624 1.396041 -0.367993
v 1.222859 1.396041 -0.367993
v 2.654083 1.396041 -0.367993
v 2.654083 1.396041 -2.214423
v 2.654083 1.396041 -3.653989
v 0.800755 1.396041 -3.653989
v -0.634624 1.396041 -3.653989
v -0.634624 1.396041 -2.214423
v 0.800755 1.396041 -0.367993
v 2.654083 1.396041 -1.756587
v 1.222859 1.396041 -3.653989
v 1.009730 1.396041 -2.010991
v 1.222859 1.396041 -2.214423
v 0.800755 1.396041 -2.214423
v 0.800755 1.396041 -1.756587
v 1.222859 1.396041 -1.756587
v -0.993622 0.079937 -0.008994
v -0.913685 0.000000 -0.088932
v 2.933144 0.000000 -0.088932
v 3.013081 0.079937 -0.008994
v -0.913685 0.000000 -3.933050
v -0.993622 0.079937 -4.012988
v 2.933144 0.000000 -3.933050
v 3.013081 0.079937 -4.012988
v -0.913685 0.000000 -2.010991
v -0.993622 0.079937 -2.010991
v 1.009730 0.000000 -0.088932
v 1.009730 0.079937 -0.008994
v 3.013081 0.079937 -2.010991
v 2.933144 0.000000 -2.010991
v 1.009730 0.000000 -3.933050
v 1.009730 0.079937 -4.012988
v 1.009730 1.316104 -4.012988
v 1.009730 1.396041 -3.933050
v 1.009730 1.316104 -0.008994
v 1.009730 1.396041 -0.088932
v -0.993622 1.316104 -2.010991
v -0.913685 1.396041 -2.010991
v 2.933144 1.396041 -2.010991
v 3.013081 1.316104 -2.010991
v 3.013081 1.316104 -4.012988
v 2.933144 1.396041 -3.933050
v -0.993622 1.316104 -4.012988
v -0.913685 1.396041 -3.933050
v -0.913685 1.396041 -0.088932
v -0.993622 1.316104 -0.008994
v 3.013081 1.316104 -0.008994
v 2.933144 1.396041 -0.088932
vt 0.500000 0.500000
vt 0.410400 0.589660
vt 0.410401 0.910340
vt 0.500000 0.980036
vt 0.980049 0.980036
vt 0.910401 0.910340
vt 0.589599 0.910340
vt 0.508452 0.980036
vt 1.000000 1.000000
vt 0.500000 1.000000
vt 0.500000 1.000000
vt 1.000000 1.000000
vt 0.500000 0.500000
vt 0.500000 0.980036
vt 0.410401 0.910340
vt 0.410400 0.589660
vt 0.589599 0.410340
vt 0.589599 0.089660
vt 0.500000 0.019964
vt 0.589600 0.589660
vt 0.019951 0.980036
vt 0.089599 0.910340
vt 0.089599 0.589660
vt 0.019951 0.509010
vt 0.000000 1.000000
vt 0.000000 0.500000
vt 0.000000 0.500000
vt 0.000000 1.000000
vt 0.019951 0.493906
vt 0.089600 0.410340
vt 0.089599 0.089660
vt 0.019951 0.019964
vt 0.980049 0.500000
vt 0.910401 0.410340
vt 0.019951 0.500000
vt 0.000000 0.000000
vt 0.000000 0.000000
vt 0.980049 0.019964
vt 0.910401 0.089660
vt 0.980049 0.493906
vt 1.000000 0.000000
vt 1.000000 0.500000
vt 1.000000 0.500000
vt 1.000000 0.000000
vt 0.910401 0.589660
vt 0.410401 0.089660
vt 0.410401 0.410340
vt 0.980049 0.509010
vt 0.980049 0.980036
vt 0.910401 0.910340
vt 0.910401 0.589660
vt 0.980049 0.019964
vt 0.980049 0.493906
vt 0.910401 0.410340
vt 0.910401 0.089660
vt 0.500000 0.019964
vt 0.589599 0.089660
vt 0.589599 0.410340
vt 0.508452 0.980036
vt 0.589599 0.910340
vt 0.019951 0.980036
vt 0.019951 0.509010
vt 0.089599 0.589660
vt 0.089599 0.910340
vt 0.491311 0.980036
vt 0.589600 0.589660
vt 0.980049 0.500000
vt 0.508452 0.019964
vt 0.019951 0.019964
vt 0.491311 0.019964
vt 0.410401 0.089660
vt 0.089599 0.089660
vt 0.019951 0.493906
vt 0.089600 0.410340
vt 0.019951 0.500000
vt 0.410401 0.410340
vt 0.491311 0.019964
vt 0.508452 0.019964
vt 0.980049 0.509010
vt 0.491311 0.980036
vt 0.500000 0.000000
vt 0.500000 0.000000
vn 0.0000 -1.0000 0.0000
vn 0.0000 0.0000 -1.0000
vn 0.0000 1.0000 0.0000
vn -1.0000 0.0000 0.0000
vn 1.0000 0.0000 0.0000
vn 0.0000 0.0000 1.0000
vn 0.7071 -0.7071 0.0000
vn 0.0000 -0.7071 -0.7071
vn -0.7071 -0.7071 0.0000
vn 0.0000 -0.7071 0.7071
vn 0.7071 0.7071 0.0000
vn 0.0000 0.7071 -0.7071
vn -0.7071 0.7071 0.0000
vn 0.0000 0.7071 0.7071
usemtl None
s off
f 97/121/29 103/122/29 104/123/29 145/124/29
f 137/125/29 100/126/29 101/127/29 145/128/29
f 138/129/30 146/130/30 147/131/30 155/132/30
f 126/133/31 148/134/31 120/135/31 128/136/31
f 97/121/29 113/137/29 110/138/29 141/139/29
f 145/124/29 101/127/29 98/140/29 97/121/29
f 135/141/29 105/142/29 102/143/29 139/144/29
f 136/145/32 140/146/32 151/147/32 157/148/32
f 139/149/29 109/150/29 106/151/29 132/152/29
f 144/153/29 112/154/29 113/137/29 97/121/29
f 139/155/29 102/143/29 103/122/29 97/121/29
f 140/146/32 131/156/32 160/157/32 151/147/32
f 133/158/29 111/159/29 112/154/29 144/160/29
f 134/161/33 143/162/33 154/163/33 161/164/33
f 97/121/29 98/140/29 99/165/29 144/153/29
f 141/139/29 107/166/29 108/167/29 97/121/29
f 153/168/31 156/169/31 119/170/31 118/171/31
f 162/172/31 153/173/31 124/174/31 117/175/31
f 126/133/31 150/176/31 116/177/31 130/178/31
f 156/169/31 148/179/31 125/180/31 119/170/31
f 158/181/31 152/182/31 122/183/31 121/184/31
f 148/185/31 158/181/31 121/184/31 120/135/31
f 148/134/31 126/133/31 127/186/31 125/180/31
f 153/187/31 126/133/31 130/178/31 124/174/31
f 150/188/31 162/172/31 117/175/31 116/177/31
f 159/189/31 150/190/31 123/191/31 115/192/31
f 152/193/31 159/189/31 115/192/31 114/194/31
f 152/195/31 126/133/31 128/136/31 122/183/31
f 126/133/31 152/195/31 114/194/31 129/196/31
f 126/133/31 153/187/31 118/171/31 127/186/31
f 150/176/31 126/133/31 129/196/31 123/191/31
f 132/152/29 106/151/29 107/166/29 141/197/29
f 141/198/29 110/138/29 111/159/29 133/158/29
f 111/159/30 110/138/30 116/177/30 117/175/30
f 144/199/29 99/165/29 100/126/29 137/125/29
f 100/126/32 99/165/32 118/171/32 119/170/32
f 145/200/29 104/123/29 105/142/29 135/141/29
f 105/142/34 104/123/34 120/135/34 121/184/34
f 97/121/29 108/167/29 109/150/29 139/155/29
f 146/130/30 136/145/30 157/148/30 147/131/30
f 102/143/33 105/142/33 121/184/33 122/183/33
f 99/165/30 98/140/30 127/186/30 118/171/30
f 143/162/33 138/129/33 155/132/33 154/163/33
f 107/166/30 106/151/30 115/192/30 123/191/30
f 103/122/30 102/143/30 122/183/30 128/136/30
f 142/201/34 134/161/34 161/164/34 149/202/34
f 98/140/33 101/127/33 125/180/33 127/186/33
f 108/167/32 107/166/32 123/191/32 129/196/32
f 112/154/32 111/159/32 117/175/32 124/174/32
f 104/123/32 103/122/32 128/136/32 120/135/32
f 110/138/33 113/137/33 130/178/33 116/177/33
f 109/150/34 108/167/34 129/196/34 114/194/34
f 101/127/34 100/126/34 119/170/34 125/180/34
f 113/137/34 112/154/34 124/174/34 130/178/34
f 106/151/33 109/150/33 114/194/33 115/192/33
f 144/199/35 137/125/35 138/129/35 143/162/35
f 137/125/36 145/128/36 146/130/36 138/129/36
f 145/200/36 135/141/36 136/145/36 146/130/36
f 135/141/37 139/144/37 140/146/37 136/145/37
f 132/152/38 141/197/38 142/201/38 131/156/38
f 139/149/37 132/152/37 131/156/37 140/146/37
f 141/198/38 133/158/38 134/161/38 142/201/38
f 133/158/35 144/160/35 143/162/35 134/161/35
f 154/163/39 155/132/39 156/169/39 153/168/39
f 155/132/40 147/131/40 148/179/40 156/169/40
f 147/131/40 157/148/40 158/181/40 148/185/40
f 157/148/41 151/147/41 152/182/41 158/181/41
f 160/157/42 149/202/42 150/190/42 159/189/42
f 151/147/41 160/157/41 159/189/41 152/193/41
f 149/202/42 161/164/42 162/172/42 150/188/42
f 161/164/39 154/163/39 153/173/39 162/172/39
f 131/156/34 142/201/34 149/202/34 160/157/34
