<svg xmlns="http://www.w3.org/2000/svg" xmlns:xlink="http://www.w3.org/1999/xlink" viewBox="0 0 1024 1024">
    <defs>
        <linearGradient id="gradient" x1="0" y1="0" x2="1024" y2="1024" gradientUnits="userSpaceOnUse">
            <stop offset="0" stop-color="#f36760"/>
            <stop offset="1" stop-color="#ef348f"/>
        </linearGradient>
    </defs>
    <path style="fill:url(#gradient)" d="M1011.873 96.361l-165.338-96.362-173.32 100.509-6.747 4.145v403.179l-154.4-89.13-154.356 89.13v-403.971l-12.923-7.497-165.646-96.362-166.794 96.583h-0.352l-12.657 6.968v624.657l1.456 0.883v191.27l173.364 99.537v-0.265l6.085 3.396 331.822-190.476 334.336 191.445 12.657-7.453 165.601-96.406v-816.28zM846.271 30.208l140.023 81.368-140.023 81.147-141.125-81.147zM692.268 133.848l141.125 80.839v579.145l-1.544-0.75-139.538-79.824v-579.409zM512.068 448.425l154.356 89.13v162.251l-154.356-89.13-154.356 89.13v-161.764zM25.185 133.848l141.125 81.016v578.218l-141.125-80.795zM331.867 522.825v190.431l-139.802 80.795v-579.364l139.802-80.839zM179.144 29.987l139.802 81.368-139.714 81.103-141.125-81.058zM26.639 905.452v-161.589l138.833 79.383 0.662 162.251zM191.36 825.628l307.919-177.774v162.295l-307.213 176.407zM525.299 810.147v-162.295l308.227 178.303v160.707zM998.952 905.232l-139.758 81.368v-162.78l70.034-40.309 69.724-40.309zM998.952 713.256l-139.758 80.574v-578.88l139.758-81.103z"/>
</svg>