<svg xmlns="http://www.w3.org/2000/svg" viewBox="0 0 699 88">
	<path d="M64.87 -0.03C67.67 -0.03 70.28 -0.03 72.95 -0.03C73.26 -0.03 73.7 0.5 73.84 0.88C76.58 8.33 79.31 15.78 82.02 23.23C88.25 40.39 94.48 57.52 100.72 74.62C100.86 75.01 101.01 75.41 101.29 76.09C101.53 75.5 101.69 75.15 101.81 74.79C110.74 50.21 119.65 25.63 128.52 1.04C128.81 0.23 129.15 -0.08 130.03 -0.06C132.54 -0.06 135.07 -0.06 137.77 -0.06L137.4 1.04C127.16 29.69 116.91 58.34 106.67 86.99C106.56 87.6 106.04 88.05 105.4 88.05C105.36 88.05 105.31 88.05 105.27 88.05L105.27 88.05C102.37 87.98 99.48 88.05 96.54 88.05L68.88 12.83C59.55 38.08 50.29 63.03 41.09 88.05C38.06 88.05 35.05 88.05 32.03 88.05C31.71 88.05 31.26 87.53 31.13 87.15C28.83 80.84 26.58 74.51 24.32 68.18L0.39 1.29C0.25 0.9 0.15 0.5 -0.01 0.02L9.45 0.02C18.49 25.17 27.61 50.31 36.71 75.84C46.17 50.37 55.51 25.19 64.87 -0.03L64.87 -0.03Z" />
	<path d="M185.07 7.92L185.07 39.39L255.75 39.39L255.75 47.21L185.12 47.21L185.12 80.02L263.2 80.02L263.2 87.99L175.81 87.99L175.81 -0.02L261.32 -0.02L261.32 7.86L185.07 7.92Z" />
	<path d="M303.74 7.57L303.74 0.11C304.1 0.11 304.44 0.04 304.76 0.04C323.27 0.04 341.78 0.04 360.29 0.04C360.58 0.03 360.93 0.03 361.28 0.03C367.38 0.03 373.17 1.36 378.37 3.76L378.11 3.66C386.1 7.51 390.17 13.92 390.13 22.77C390.09 31.61 386.12 38.13 378.08 42.02L377.08 42.56C377.08 42.56 377.08 42.56 377.08 42.74L379.75 43.55C391.19 47.27 395.58 56.36 394.68 66.95C393.81 77.29 387.54 83.06 378.1 85.99C373.89 87.31 369.04 88.06 364.02 88.06C363.88 88.06 363.74 88.06 363.6 88.06L363.63 88.06C344.07 88.06 324.38 88.06 304.77 88.06L303.79 88.06L303.79 80.57L361.67 80.57C362.03 80.59 362.45 80.59 362.87 80.59C367.32 80.59 371.6 79.86 375.6 78.51L375.32 78.59C382.3 76.03 385.84 70.81 385.53 63.35C385.21 55.29 380.93 50.27 372.38 48.53C368.98 47.83 365.05 47.42 361.03 47.39L361.01 47.39C348.02 47.27 335.02 47.39 322.01 47.39C316.27 47.39 310.54 47.39 304.8 47.39L303.8 47.39L303.8 39.7L358.43 39.7C358.67 39.7 358.95 39.71 359.23 39.71C363.3 39.71 367.21 39.04 370.87 37.81L370.61 37.88C380.61 34.37 382.2 25.6 380.11 18.55C378.82 14.2 375.67 11.56 371.6 9.82C367.95 8.41 363.74 7.6 359.33 7.6C358.86 7.6 358.39 7.61 357.93 7.62L357.99 7.62C346.53 7.62 335.04 7.62 323.57 7.62C317.3 7.62 311 7.62 304.77 7.55L303.74 7.57Z" />
	<path d="M500.7 57.86L522.12 87.92C521.7 87.92 521.42 88.02 521.15 88.02C518.43 88.02 515.72 88.02 513.01 88.02C512.97 88.03 512.93 88.03 512.89 88.03C512.3 88.03 511.79 87.72 511.5 87.25L511.5 87.24C505.19 78.33 498.85 69.42 492.5 60.52C490.78 58.09 488.98 55.71 487.22 53.31C486.99 53.01 486.8 52.69 486.52 52.29C488.6 52.04 490.57 51.85 492.51 51.55C495.9 51.04 498.96 49.97 501.72 48.43L501.58 48.5C507.01 45.5 510.77 40.04 511.35 33.66L511.36 33.58C511.53 32.5 511.62 31.24 511.62 29.97C511.62 26.93 511.08 24.02 510.09 21.33L510.14 21.5C507.66 14.83 502.56 11.06 495.91 9.39C492.9 8.57 489.44 8.06 485.88 7.99L485.83 7.99C472.19 7.84 458.54 7.99 444.89 7.99L443.84 7.99L443.84 87.97L434.6 87.97L434.6 -0.04L435.86 -0.04C452.3 -0.04 468.75 -0.04 485.19 -0.04C485.57 -0.06 486.03 -0.06 486.48 -0.06C493.48 -0.06 500.1 1.56 505.99 4.46L505.73 4.34C513.98 8.35 519.74 16.33 520.57 25.72L520.58 25.82C520.8 27.21 520.92 28.82 520.92 30.45C520.92 35.42 519.76 40.13 517.7 44.3L517.78 44.12C514.6 50.13 509.39 54.71 503.08 56.99L502.89 57.05C502.18 57.35 501.52 57.59 500.7 57.86L500.7 57.86Z" />
	<path d="M643.6 42.76L599.97 -0.03C603.61 -0.03 606.96 -0.03 610.3 -0.03C610.66 -0.03 611.06 0.39 611.39 0.68L648.92 35.51C649.06 35.65 649.22 35.76 649.45 35.98C649.82 35.65 650.17 35.33 650.5 34.99C662.14 23.59 673.79 12.18 685.43 0.76C685.89 0.27 686.55 -0.04 687.27 -0.04C687.33 -0.04 687.38 -0.04 687.43 -0.03L687.42 -0.03C690.22 -0.03 693.08 -0.03 696.24 -0.03L654.72 42.49L698.5 87.97C697.97 87.97 697.65 88.05 697.33 88.05C694.54 88.05 691.83 88.05 689.08 88.05C689.03 88.05 688.97 88.05 688.92 88.05C688.15 88.05 687.45 87.73 686.97 87.2L686.97 87.2C674.68 74.86 662.39 62.54 650.1 50.25C649.81 49.95 649.56 49.62 649.21 49.2C648.76 49.62 648.42 49.9 648.09 50.2C635.18 62.54 622.27 74.88 609.36 87.22C608.86 87.74 608.15 88.05 607.38 88.05C607.33 88.05 607.28 88.05 607.23 88.05L607.24 88.05C604.22 88.05 601.2 88.05 597.85 88.05L643.6 42.76Z" />
	<path d="M566.71 88.01L557.6 88.01L557.6 0L566.71 0L566.71 88.01Z" />
</svg>